# xmcd CD database file
#
# Track frame offsets:
#	150
#	8842
#	27942
#	50197
#	71602
#	91550
#	112597
#	133925
#	156907
#	186675
#
# Disc length: 2812 seconds
#
# Revision: 2
# Processed by: cddbd v1.5.1PL0 Copyright (c) Steve Scherf et al.
# Submitted via: CDex 1.51
#
DISCID=830afa0a
DTITLE=浅田祐介 - globe in your hands
DYEAR=1995
DGENRE=Rock
TTITLE0=DAWN…WORLD IS ONE
TTITLE1=TIME
TTITLE2=EVERYDAY SUNSHINE
TTITLE3=EVERLASTING LOVE
TTITLE4=明日の姿に
TTITLE5=さびしいこのごろ
TTITLE6=BRAND NEW SOUL
TTITLE7=TRUE LIFE
TTITLE8=どんなに歩き続けてもたどり着けない場所へ
TTITLE9=DIVE IN YOU
EXTD=YEAR: 1995
EXTT0=
EXTT1=
EXTT2=
EXTT3=
EXTT4=
EXTT5=
EXTT6=
EXTT7=
EXTT8=
EXTT9=
PLAYORDER=
